<?xml version="1.0" encoding="iso-8859-1"?>
<!-- Generator: Adobe Illustrator 19.0.0, SVG Export Plug-In . SVG Version: 6.00 Build 0)  -->
<svg version="1.1" id="Capa_1" xmlns="http://www.w3.org/2000/svg" xmlns:xlink="http://www.w3.org/1999/xlink" x="0px" y="0px"
	 viewBox="0 0 512 512" style="enable-background:new 0 0 512 512;" xml:space="preserve">
<g>
	<g>
		<path style="fill:#1A73E8;" d="M482.817,345.15c-3.542-13.212-12.017-24.25-23.858-31.088c-4.744-2.743-9.907-4.592-15.225-5.698V203.635
			c5.318-1.106,10.481-2.953,15.225-5.694c11.842-6.842,20.317-17.879,23.858-31.092c3.533-13.208,1.717-27.004-5.117-38.846
			c-9.117-15.8-26.117-25.612-44.375-25.612c-8.942,0-17.783,2.375-25.567,6.871c-5.222,3.016-9.663,6.853-13.358,11.209
			L304.014,68.81c2.024-5.501,3.186-11.416,3.186-17.61C307.2,22.967,284.233,0,256,0c-28.233,0-51.2,22.967-51.2,51.2
			c0,6.195,1.162,12.109,3.186,17.61l-90.385,51.66c-3.695-4.357-8.136-8.195-13.359-11.212c-7.783-4.492-16.625-6.867-25.567-6.867
			c-18.258,0-35.258,9.812-44.375,25.608c-6.833,11.846-8.65,25.642-5.117,38.85c3.542,13.213,12.017,24.25,23.858,31.088
			c4.744,2.743,9.907,4.592,15.225,5.698v104.729c-5.318,1.106-10.481,2.953-15.225,5.694C41.2,320.9,32.725,331.938,29.183,345.15
			c-3.533,13.208-1.717,27.004,5.117,38.846c9.117,15.8,26.117,25.612,44.375,25.612c8.942,0,17.783-2.375,25.567-6.871
			c5.222-3.016,9.663-6.853,13.358-11.209l90.386,51.661c-2.024,5.501-3.186,11.416-3.186,17.61c0,28.233,22.967,51.2,51.2,51.2
			c28.233,0,51.2-22.967,51.2-51.2c0-6.195-1.162-12.109-3.186-17.61l90.385-51.66c3.695,4.357,8.136,8.196,13.359,11.212
			c7.783,4.492,16.625,6.867,25.567,6.867c18.258,0,35.258-9.813,44.375-25.608C484.533,372.154,486.35,358.358,482.817,345.15z
			 M416.292,124.042c5.192-3,11.083-4.583,17.033-4.583c12.175,0,23.517,6.542,29.592,17.075c4.558,7.896,5.775,17.096,3.417,25.9
			c-2.367,8.808-8.008,16.167-15.908,20.729c-5.192,2.996-11.075,4.579-17.025,4.579c-12.175,0-23.517-6.542-29.6-17.075
			C394.392,154.367,400,133.45,416.292,124.042z M295.574,83.643l90.085,51.489c-4.492,11.634-4.693,24.794,0.009,36.931
			l-54.464,31.128l-66.672-37.514v-64.047C276.961,99.531,287.896,92.993,295.574,83.643z M273.196,256l51.071-29.189v58.377
			L273.196,256z M313.938,298.941l-49.405,27.799v-56.035L313.938,298.941z M264.533,241.295V185.26l49.405,27.799L264.533,241.295z
			 M256,17.067c18.825,0,34.133,15.313,34.133,34.133S274.825,85.333,256,85.333c-18.825,0-34.133-15.312-34.133-34.133
			S237.175,17.067,256,17.067z M126.341,135.131l90.085-51.489c7.679,9.35,18.614,15.888,31.041,17.987v64.047l-66.672,37.514
			l-54.464-31.128C131.033,159.926,130.832,146.766,126.341,135.131z M247.467,270.705v56.035l-49.405-27.799L247.467,270.705z
			 M187.733,285.189v-58.377L238.804,256L187.733,285.189z M198.062,213.059l49.405-27.799v56.035L198.062,213.059z M61.575,183.158
			c-16.3-9.408-21.9-30.325-12.492-46.629C55.158,126,66.5,119.458,78.675,119.458c5.95,0,11.842,1.583,17.033,4.579
			c16.292,9.413,21.9,30.329,12.492,46.629c-6.083,10.533-17.425,17.075-29.6,17.075C72.65,187.742,66.767,186.158,61.575,183.158z
			 M95.708,387.958c-5.192,3-11.083,4.583-17.033,4.583c-12.175,0-23.517-6.542-29.592-17.075
			c-9.408-16.3-3.808-37.217,12.492-46.629c5.192-2.996,11.075-4.579,17.025-4.579c12.175,0,23.517,6.542,29.6,17.075
			C117.608,357.633,112,378.55,95.708,387.958z M117.556,325.296c-8.193-9.601-19.655-15.979-32.223-17.655V204.358
			c12.568-1.676,24.03-8.054,32.223-17.655l53.11,30.354v77.884L117.556,325.296z M216.426,428.357l-90.085-51.489
			c4.492-11.634,4.693-24.794-0.009-36.931l54.464-31.128l66.672,37.514v64.047C235.039,412.469,224.104,419.007,216.426,428.357z
			 M256,494.933c-18.825,0-34.133-15.312-34.133-34.133s15.308-34.133,34.133-34.133c18.825,0,34.133,15.313,34.133,34.133
			S274.825,494.933,256,494.933z M385.659,376.869l-90.085,51.488c-7.679-9.35-18.614-15.888-31.041-17.986v-64.047l66.672-37.514
			l54.464,31.128C380.967,352.074,381.168,365.234,385.659,376.869z M394.444,325.296l-53.11-30.354v-77.884l53.11-30.354
			c8.192,9.601,19.655,15.979,32.223,17.655v103.283C414.098,309.318,402.636,315.695,394.444,325.296z M462.917,375.471
			c-6.075,10.529-17.417,17.071-29.592,17.071c-5.95,0-11.842-1.583-17.033-4.579c-16.292-9.412-21.9-30.329-12.492-46.629
			c6.083-10.533,17.425-17.075,29.6-17.075c5.95,0,11.833,1.583,17.025,4.583c7.9,4.558,13.542,11.917,15.908,20.725
			C468.692,358.371,467.475,367.571,462.917,375.471z"/>
	</g>
</g>
<g>
</g>
<g>
</g>
<g>
</g>
<g>
</g>
<g>
</g>
<g>
</g>
<g>
</g>
<g>
</g>
<g>
</g>
<g>
</g>
<g>
</g>
<g>
</g>
<g>
</g>
<g>
</g>
<g>
</g>
</svg>
